<svg width="60" height="46" viewBox="0 0 60 46" fill="none" xmlns="http://www.w3.org/2000/svg">
  <path d="M50.7929 4.23018C46.9678 2.50518 42.8679 1.23018 38.5804 0.505178C38.5422 0.497848 38.5026 0.502572 38.4673 0.518696C38.4319 0.534821 38.4024 0.561549 38.3829 0.595178C37.8578 1.51768 37.2729 2.72018 36.8629 3.67018C32.3156 2.99077 27.6926 2.99077 23.1453 3.67018C22.6887 2.61733 22.1737 1.59074 21.6028 0.595178C21.5835 0.561135 21.5542 0.533803 21.5189 0.516828C21.4836 0.499854 21.444 0.494046 21.4053 0.500178C17.1203 1.22518 13.0203 2.50018 9.19285 4.22768C9.15992 4.24149 9.132 4.26504 9.11285 4.29518C1.33285 15.7327 -0.799653 26.8877 0.247847 37.9027C0.250762 37.9297 0.259136 37.9558 0.272459 37.9794C0.285783 38.003 0.303777 38.0237 0.325347 38.0402C4.86633 41.3462 9.93119 43.8647 15.3078 45.4902C15.3453 45.5017 15.3854 45.5017 15.4229 45.4901C15.4603 45.4785 15.4934 45.4559 15.5178 45.4252C16.6748 43.8779 17.7001 42.2363 18.5828 40.5177C18.5951 40.4942 18.6022 40.4683 18.6036 40.4419C18.6049 40.4154 18.6006 40.3889 18.5909 40.3643C18.5812 40.3396 18.5663 40.3174 18.5472 40.299C18.5281 40.2806 18.5053 40.2665 18.4803 40.2577C16.8654 39.6495 15.3006 38.9156 13.8003 38.0627C13.7734 38.0473 13.7507 38.0254 13.7342 37.9991C13.7178 37.9728 13.7082 37.9428 13.7062 37.9118C13.7042 37.8808 13.7099 37.8499 13.7229 37.8216C13.7358 37.7934 13.7556 37.7689 13.7803 37.7502C14.0953 37.5177 14.4103 37.2752 14.7103 37.0327C14.7374 37.0109 14.7699 36.997 14.8043 36.9926C14.8387 36.9882 14.8737 36.9934 14.9053 37.0077C24.7228 41.4177 35.3554 41.4177 45.0579 37.0077C45.0896 36.9925 45.1249 36.9866 45.1598 36.9906C45.1948 36.9946 45.2278 37.0083 45.2553 37.0302C45.5554 37.2752 45.8679 37.5177 46.1854 37.7502C46.2104 37.7685 46.2304 37.7927 46.2438 37.8207C46.2572 37.8487 46.2634 37.8795 46.2619 37.9105C46.2604 37.9414 46.2513 37.9715 46.2353 37.9981C46.2193 38.0247 46.197 38.0468 46.1704 38.0627C44.6754 38.9227 43.1203 39.6502 41.4879 40.2552C41.4628 40.2643 41.4399 40.2786 41.4209 40.2973C41.4018 40.3159 41.3869 40.3384 41.3772 40.3632C41.3675 40.3881 41.3632 40.4147 41.3646 40.4413C41.366 40.468 41.3731 40.494 41.3854 40.5177C42.2854 42.2352 43.3153 43.8702 44.4478 45.4227C44.4714 45.4545 44.5042 45.4784 44.5418 45.4909C44.5794 45.5034 44.6199 45.504 44.6579 45.4927C50.0437 43.8718 55.1169 41.3521 59.6629 38.0402C59.685 38.0247 59.7036 38.0046 59.7174 37.9813C59.7312 37.958 59.7399 37.9321 59.7429 37.9052C60.9929 25.1702 57.6479 14.1052 50.8703 4.30018C50.8537 4.26831 50.8262 4.24348 50.7929 4.23018ZM20.0504 31.1952C17.0954 31.1952 14.6578 28.5227 14.6578 25.2452C14.6578 21.9652 17.0478 19.2952 20.0504 19.2952C23.0753 19.2952 25.4903 21.9877 25.4429 25.2452C25.4429 28.5252 23.0529 31.1952 20.0504 31.1952ZM39.9879 31.1952C37.0303 31.1952 34.5954 28.5227 34.5954 25.2452C34.5954 21.9652 36.9828 19.2952 39.9879 19.2952C43.0129 19.2952 45.4279 21.9877 45.3804 25.2452C45.3804 28.5252 43.0154 31.1952 39.9879 31.1952Z" fill="white" />
</svg>